<svg xmlns="http://www.w3.org/2000/svg" viewBox="0 0 1280 720" role="img" aria-labelledby="heroTitle heroDesc">
  <title id="heroTitle">World Cup 2026 knockout matchday recap 30 June editorial graphic</title>
  <desc id="heroDesc">Original GoalCurrent.live graphic for France, Norway and Mexico advancing in the FIFA World Cup 2026 Round of 32 on 30 June</desc>
  <defs>
    <linearGradient id="bg" x1="0%" y1="0%" x2="100%" y2="100%">
      <stop offset="0%" stop-color="#0a1628"/>
      <stop offset="40%" stop-color="#1a3a6b"/>
      <stop offset="70%" stop-color="#006847"/>
      <stop offset="100%" stop-color="#ba0c2f"/>
    </linearGradient>
    <linearGradient id="gold" x1="0%" y1="0%" x2="0%" y2="100%">
      <stop offset="0%" stop-color="#f5d76e"/>
      <stop offset="100%" stop-color="#c9a227"/>
    </linearGradient>
  </defs>
  <rect width="1280" height="720" fill="url(#bg)"/>
  <circle cx="1100" cy="100" r="150" fill="#ffffff" opacity="0.05"/>
  <circle cx="160" cy="580" r="190" fill="#ffffff" opacity="0.04"/>
  <g transform="translate(940 200)" opacity="0.9">
    <ellipse cx="0" cy="160" rx="110" ry="20" fill="#000" opacity="0.3"/>
    <ellipse cx="0" cy="0" rx="130" ry="80" fill="none" stroke="rgba(255,255,255,0.15)" stroke-width="2"/>
    <ellipse cx="0" cy="0" rx="90" ry="55" fill="none" stroke="rgba(255,255,255,0.1)" stroke-width="2"/>
    <line x1="-130" y1="0" x2="130" y2="0" stroke="rgba(255,255,255,0.12)" stroke-width="2"/>
    <circle cx="0" cy="0" r="14" fill="none" stroke="rgba(255,255,255,0.25)" stroke-width="2"/>
  </g>
  <rect x="72" y="88" width="14" height="14" fill="#0055a4"/>
  <rect x="86" y="88" width="14" height="14" fill="#ffffff"/>
  <rect x="100" y="88" width="14" height="14" fill="#ef2b2d"/>
  <rect x="114" y="88" width="14" height="14" fill="#006847"/>
  <rect x="128" y="88" width="14" height="14" fill="#ffffff"/>
  <rect x="142" y="88" width="14" height="14" fill="#ce1126"/>
  <text x="72" y="150" fill="#ffffff" font-family="Segoe UI, Arial, sans-serif" font-size="28" font-weight="700" letter-spacing="0.08em">WORLD CUP 2026 &#183; MATCH RECAP</text>
  <text x="72" y="240" fill="#ffffff" font-family="Segoe UI, Arial, sans-serif" font-size="50" font-weight="700">Knockout Night</text>
  <text x="72" y="310" fill="#f5d76e" font-family="Segoe UI, Arial, sans-serif" font-size="50" font-weight="700">30 June 2026</text>
  <text x="72" y="380" fill="rgba(255,255,255,0.85)" font-family="Segoe UI, Arial, sans-serif" font-size="24">France &#183; Norway on pens &#183; Mexico at the Azteca</text>
  <rect x="72" y="430" width="580" height="4" fill="#f5d76e" opacity="0.85"/>
  <text x="72" y="480" fill="rgba(255,255,255,0.7)" font-family="Segoe UI, Arial, sans-serif" font-size="20">GoalCurrent.live editorial &#183; 1 July 2026</text>
</svg>
